<svg width="1424" height="532" viewBox="0 0 1424 532" fill="none" xmlns="http://www.w3.org/2000/svg">
<path d="M1275.96 342.576L1275.96 342.577C1261.1 360.121 1240.97 368.925 1215.4 368.925C1189.63 368.925 1169.32 360.119 1154.28 342.572C1139.22 324.829 1131.6 299.805 1131.6 267.298C1131.6 234.79 1139.22 209.764 1154.28 192.021C1169.32 174.291 1189.64 165.397 1215.4 165.397C1240.97 165.397 1261.1 174.288 1275.96 192.014L1275.96 192.021C1291.02 209.764 1298.65 234.79 1298.65 267.298C1298.65 299.807 1291.02 324.832 1275.96 342.576ZM1110.36 378.595C1137.19 406.536 1172.25 420.471 1215.4 420.471C1258.18 420.471 1293.05 406.533 1319.88 378.595C1346.71 350.652 1360.07 313.499 1360.07 267.298C1360.07 221.098 1346.71 183.945 1319.88 156.001C1293.05 128.063 1258.18 114.125 1215.4 114.125C1172.25 114.125 1137.19 128.06 1110.36 156.001C1083.53 183.945 1070.18 221.098 1070.18 267.298C1070.18 313.499 1083.53 350.652 1110.36 378.595Z" fill="black" stroke="black" stroke-width="3"/>
<path d="M1038.61 413.615H1040.11V412.115V217.655C1040.11 184.649 1030.98 159.071 1012.51 141.158C994.237 123.079 968.952 114.125 936.854 114.125C917.046 114.125 899.226 118.756 883.435 128.044C869.22 136.337 857.172 147.258 847.295 160.794V122.208V120.708H845.795H792.037H790.537V122.208V412.115V413.615H792.037H847.989H849.489V412.115V248.648C849.489 234.723 851.659 222.393 855.964 211.629C860.287 200.823 865.928 192.347 872.853 186.133L872.86 186.126L872.868 186.118C879.872 179.653 887.486 174.821 895.711 171.602L895.724 171.597L895.737 171.592C903.969 168.191 912.46 166.494 921.22 166.494C941.38 166.494 956.223 171.488 966.036 181.213C975.847 190.936 980.883 205.638 980.883 225.609V412.115V413.615H982.383H1038.61Z" fill="black" stroke="black" stroke-width="3"/>
<path d="M691.501 120.708H690.001V122.208V158.71C667.696 128.977 636.135 114.125 595.505 114.125C554.9 114.125 522.291 127.895 497.838 155.497L497.838 155.498C473.584 182.899 461.531 219.581 461.531 265.378C461.531 310.998 473.678 347.767 498.109 375.53L498.116 375.538C522.751 403.136 555.448 416.906 596.054 416.906C635.089 416.906 665.732 402.909 687.807 374.882V402.515C687.807 428.963 680.927 448.625 667.416 461.781L667.408 461.788C653.881 475.137 634.111 481.926 607.848 481.926C586.073 481.926 569.416 477.703 557.697 469.446C546.029 461.225 539.077 448.881 536.927 432.219L536.758 430.911H535.439H479.213H477.568L477.72 432.549C480.498 462.555 493.119 486.438 515.588 504.079C538.059 521.721 568.686 530.455 607.299 530.455C652.703 530.455 687.422 518.873 711.199 495.471C735.131 472.279 747.033 440.868 747.033 401.418V122.208V120.708H745.533H691.501ZM667.043 191.745L667.048 191.751C681.918 209.13 689.452 233.605 689.452 265.378C689.452 297.151 681.919 321.722 667.043 339.286C652.186 356.828 631.965 365.634 606.202 365.634C580.823 365.634 560.688 356.658 545.639 338.742C530.569 320.801 522.951 296.403 522.951 265.378C522.951 234.539 530.568 210.231 545.639 192.289C560.688 174.373 580.823 165.397 606.202 165.397C631.965 165.397 652.186 174.203 667.043 191.745Z" fill="black" stroke="black" stroke-width="3"/>
<mask id="path-4-outside-1_117_1579" maskUnits="userSpaceOnUse" x="129.422" y="0" width="330" height="416" fill="black">
<rect fill="white" x="129.422" width="330" height="416"/>
<path fill-rule="evenodd" clip-rule="evenodd" d="M132.422 58.5898H251.459C255.588 58.5898 259.293 61.1283 260.784 64.9794L395.179 412.113H454.923L293.476 3H132.422V58.5898Z"/>
</mask>
<path fill-rule="evenodd" clip-rule="evenodd" d="M132.422 58.5898H251.459C255.588 58.5898 259.293 61.1283 260.784 64.9794L395.179 412.113H454.923L293.476 3H132.422V58.5898Z" fill="black"/>
<path d="M132.422 58.5898H129.422V61.5898H132.422V58.5898ZM260.784 64.9794L257.986 66.0625L257.986 66.0626L260.784 64.9794ZM395.179 412.113L392.381 413.196L393.123 415.113H395.179V412.113ZM454.923 412.113V415.113H459.332L457.714 411.012L454.923 412.113ZM293.476 3L296.266 1.89876L295.517 0H293.476V3ZM132.422 3V0H129.422V3H132.422ZM251.459 55.5898H132.422V61.5898H251.459V55.5898ZM263.582 63.8963C261.643 58.8899 256.827 55.5898 251.459 55.5898V61.5898C254.349 61.5898 256.943 63.3668 257.986 66.0625L263.582 63.8963ZM397.976 411.03L263.582 63.8963L257.986 66.0626L392.381 413.196L397.976 411.03ZM454.923 409.113H395.179V415.113H454.923V409.113ZM290.685 4.10124L452.133 413.214L457.714 411.012L296.266 1.89876L290.685 4.10124ZM132.422 6H293.476V0H132.422V6ZM135.422 58.5898V3H129.422V58.5898H135.422Z" fill="black" mask="url(#path-4-outside-1_117_1579)"/>
<rect x="1.5" y="360.781" width="197.773" height="52.8355" fill="black" stroke="black" stroke-width="3"/>
<path d="M1350.63 55.8242V65.9961H1331.48V115.625H1320.07V65.9961H1300.92V55.8242H1350.63ZM1401.55 55.8242H1418V115.625H1407.17V97.4141C1407.17 87.2695 1407.28 77.3848 1407.5 67.7598C1406.22 72.1074 1404.71 76.7012 1402.99 81.541L1390.89 115.625H1381.54L1369.36 81.541C1367.66 76.5918 1366.18 72.0527 1364.93 67.9238C1365.15 77.4668 1365.25 87.2969 1365.25 97.4141V115.625H1354.34V55.8242H1370.79L1381.13 84.8633C1382.69 89.6211 1384.4 95.0352 1386.25 101.105C1388.06 94.8984 1389.82 89.293 1391.55 84.2891L1401.55 55.8242Z" fill="black"/>
</svg>
